# xmcd
#
# Track frame offsets:
#	150
#	17788
#	34273
#	57614
#	77076
#	96308
#	111682
#	129352
#	151105
#	168443
#
# Disc length: 2532 seconds
# Revision: 0
# Processed by: cddbd v1.5.2PL0 Copyright (c) Steve Scherf et al.
# Submitted via: dBpowerAMP V12.0
#
DISCID=8309e20a
DTITLE=Florent Brinker - Filer a l'anglaise
DYEAR=2010
DGENRE=Chanson
TTITLE0=Filer a l'anglaise
TTITLE1=L'ombre au tableau
TTITLE2=Le gardien du phare
TTITLE3=Tu ne m'auras pas
TTITLE4=Pas d'inquietude
TTITLE5=Ton ex
TTITLE6=Ma toute belle
TTITLE7=Sur la baie
TTITLE8=Go to the mirror
TTITLE9=A rebours
EXTD=
EXTT0=
EXTT1=
EXTT2=
EXTT3=
EXTT4=
EXTT5=
EXTT6=
EXTT7=
EXTT8=
EXTT9=
PLAYORDER=
